<svg width="640" height="137" viewBox="0 0 640 137" fill="none" xmlns="http://www.w3.org/2000/svg">
<g id="Group 1">
<path id="cursive-logo" d="M50.96 98.28C41.84 102.12 32.3467 104.2 22.48 104.52C17.04 104.52 12.5867 103.72 9.12 102.12C5.70667 100.573 3.41333 98.84 2.24 96.92C1.54667 96.0133 1.22667 95 1.28 93.88C1.38667 92.76 1.84 91.8 2.64 91C3.54667 89.9867 4.66667 89.1867 6 88.6C7.33333 87.96 8.64 87.48 9.92 87.16C11.2 86.84 12.88 86.7067 14.96 86.76C17.0933 86.76 18.9067 86.8133 20.4 86.92C21.8933 87.0267 24.0267 87.32 26.8 87.8C29.5733 88.28 31.7867 88.68 33.44 89C35.0933 89.32 37.5733 89.8267 40.88 90.52C44.8267 91.3733 48 92.04 50.4 92.52C52.0533 92.84 53.6533 92.6533 55.2 91.96L56.32 91.4C66.7733 86.6533 78.3467 77.1867 91.04 63C91.4667 62.4667 91.52 61.9067 91.2 61.32C90.9333 60.68 90.4533 60.36 89.76 60.36C84.8533 60.4133 80.4 60.0667 76.4 59.32C72.4533 58.5733 69.2533 57.64 66.8 56.52C64.3467 55.3467 62.2133 53.9333 60.4 52.28C58.64 50.6267 57.3333 49.08 56.48 47.64C55.6267 46.2 54.96 44.68 54.48 43.08C53.2533 38.9733 53.3067 34.5733 54.64 29.88C55.9733 25.1333 58.3733 20.7333 61.84 16.68C65.3067 12.5733 69.4133 9.37333 74.16 7.08C74.6933 6.86666 75.2267 6.86666 75.76 7.08C76.2933 7.24 76.6933 7.58667 76.96 8.12C77.2267 8.6 77.2533 9.13333 77.04 9.72C76.88 10.2533 76.5333 10.6533 76 10.92C71.8933 12.8933 68.2933 15.6667 65.2 19.24C62.16 22.76 60.0267 26.5733 58.8 30.68C57.5733 34.7333 57.4933 38.4667 58.56 41.88C60.0533 47 63.8933 50.7867 70.08 53.24C76.2667 55.64 84.32 56.5467 94.24 55.96C96.32 55.8 98 54.9467 99.28 53.4C101.573 50.6267 104.427 47.1333 107.84 42.92C117.44 31.1333 124.48 23 128.96 18.52C138.187 9.34666 146.4 4.78666 153.6 4.84C155.04 4.84 156.427 5 157.76 5.31999C158.187 5.37333 158.56 5.50666 158.88 5.71999C159.253 5.93333 159.653 6.25333 160.08 6.68C160.56 7.05333 160.933 7.64 161.2 8.43999C161.467 9.23999 161.573 10.1733 161.52 11.24C161.413 13.2667 160.693 15.7467 159.36 18.68C158.027 21.56 156.213 24.6533 153.92 27.96C151.627 31.2667 148.72 34.6267 145.2 38.04C141.733 41.4 137.973 44.52 133.92 47.4C129.867 50.28 125.2 52.7867 119.92 54.92C114.693 57.0533 109.36 58.4933 103.92 59.24L102.48 59.4C100.4 59.6667 98.6667 60.6 97.28 62.2C85.2267 76.1733 74.2667 86.0667 64.4 91.88C63.76 92.3067 63.4933 92.8933 63.6 93.64C63.76 94.3867 64.24 94.8133 65.04 94.92C70.7467 95.72 76.1067 96.1733 81.12 96.28C86.1333 96.3333 91.3333 95.9867 96.72 95.24C102.16 94.44 107.467 92.9467 112.64 90.76C117.813 88.5733 122.667 85.6933 127.2 82.12C127.68 81.7467 128.187 81.5867 128.72 81.64C129.307 81.6933 129.787 81.96 130.16 82.44C130.533 82.8667 130.667 83.3733 130.56 83.96C130.507 84.5467 130.267 85.0267 129.84 85.4C125.467 88.8667 120.72 91.72 115.6 93.96C110.533 96.1467 105.627 97.72 100.88 98.68C96.1333 99.64 90.9867 100.173 85.44 100.28C79.9467 100.387 74.9333 100.227 70.4 99.8C65.92 99.32 61.04 98.6267 55.76 97.72C54.1067 97.4533 52.5067 97.64 50.96 98.28ZM15.44 90.92C12.9333 90.92 10.6667 91.1867 8.64 91.72C6.66667 92.2 5.68 92.92 5.68 93.88C5.68 94.9467 6.34667 95.8533 7.68 96.6C16.0533 101.4 27.5733 101.48 42.24 96.84C42.9333 96.6267 43.12 96.3067 42.8 95.88C42.48 95.4 41.5467 95 40 94.68C31.9467 92.5467 23.76 91.2933 15.44 90.92ZM153.6 8.99999C152.213 8.99999 150.747 9.23999 149.2 9.72C147.707 10.1467 146.267 10.68 144.88 11.32C143.547 11.96 142.027 12.9467 140.32 14.28C138.613 15.56 137.12 16.7333 135.84 17.8C134.56 18.8133 132.96 20.3333 131.04 22.36C129.12 24.3867 127.547 26.0667 126.32 27.4C125.093 28.68 123.413 30.6 121.28 33.16C119.147 35.72 117.493 37.72 116.32 39.16C115.147 40.5467 113.387 42.7067 111.04 45.64C109.493 47.56 107.893 49.5067 106.24 51.48C105.76 52.12 105.707 52.7867 106.08 53.48C106.507 54.1733 107.12 54.44 107.92 54.28C112.773 53.2133 117.493 51.5867 122.08 49.4C126.667 47.2133 130.693 44.76 134.16 42.04C137.68 39.32 140.907 36.44 143.84 33.4C146.773 30.36 149.2 27.4267 151.12 24.6C153.04 21.72 154.533 19.1067 155.6 16.76C156.667 14.4133 157.227 12.4933 157.28 11C157.333 9.98666 157.173 9.45333 156.8 9.39999C155.787 9.13333 154.72 8.99999 153.6 8.99999ZM203.02 80.92C203.607 80.92 204.087 81.1333 204.46 81.56C204.833 81.9867 204.993 82.4933 204.94 83.08C204.94 83.6667 204.727 84.1467 204.3 84.52C203.82 84.9467 203.18 85.5067 202.38 86.2C201.633 86.84 200.247 87.9067 198.22 89.4C196.193 90.8933 194.14 92.2533 192.06 93.48C189.98 94.7067 187.527 95.9333 184.7 97.16C181.873 98.3333 179.153 99.16 176.54 99.64C173.927 100.12 171.18 100.173 168.3 99.8C165.42 99.3733 162.78 98.3867 160.38 96.84C158.14 95.4 156.353 93.5333 155.02 91.24C154.647 90.6 154.06 90.2533 153.26 90.2C152.513 90.1467 151.927 90.44 151.5 91.08C149.633 93.96 147.58 96.3867 145.34 98.36C143.153 100.333 141.127 101.347 139.26 101.4H139.18C138.22 101.347 137.34 101.053 136.54 100.52C135.687 99.9333 135.073 99.1867 134.7 98.28C133.1 94.28 133.34 90.3867 135.42 86.6C137.18 82.92 139.633 79.8 142.78 77.24C145.98 74.6267 149.58 72.84 153.58 71.88C154.38 71.6667 155.047 71.8533 155.58 72.44C156.167 73.0267 156.327 73.72 156.06 74.52C155.847 75.2667 155.34 75.7467 154.54 75.96C151.18 76.76 148.167 78.2533 145.5 80.44C142.833 82.5733 140.753 85.2133 139.26 88.36C137.767 90.92 137.5 93.5867 138.46 96.36C138.78 96.8933 139.02 97.16 139.18 97.16C140.087 97.7467 141.847 96.0933 144.46 92.2C147.073 88.3067 149.42 84.0933 151.5 79.56C151.927 78.6 152.673 78.2 153.74 78.36C154.753 78.52 155.34 79.1067 155.5 80.12C155.553 80.3867 155.607 80.76 155.66 81.24C155.767 81.6667 156.007 82.4933 156.38 83.72C156.753 84.8933 157.18 86.0133 157.66 87.08C158.14 88.1467 158.833 89.2933 159.74 90.52C160.647 91.6933 161.633 92.6267 162.7 93.32C164.727 94.6533 166.993 95.4533 169.5 95.72C172.06 95.9867 174.487 95.8533 176.78 95.32C179.127 94.7867 181.58 93.96 184.14 92.84C186.7 91.6667 188.913 90.4933 190.78 89.32C192.647 88.1467 194.487 86.8933 196.3 85.56C198.113 84.2267 199.34 83.2933 199.98 82.76C200.673 82.1733 201.18 81.72 201.5 81.4C201.927 81.0267 202.433 80.8667 203.02 80.92ZM321.395 8.04C324.222 10.0133 326.408 12.52 327.955 15.56C329.502 18.6 330.222 21.8267 330.115 25.24C330.168 29.0267 329.422 32.6533 327.875 36.12C326.328 39.5333 324.115 42.44 321.235 44.84C314.408 50.76 303.955 54.4933 289.875 56.04C289.448 56.0933 289.048 56.3067 288.675 56.68C288.355 57 288.168 57.3733 288.115 57.8C288.008 58.8667 288.462 59.5867 289.475 59.96C301.262 64.28 308.862 69.1867 312.275 74.68C314.675 78.2 315.208 81.9867 313.875 86.04C310.782 95.64 300.568 100.44 283.235 100.44C278.542 100.44 273.475 100.12 268.035 99.48C262.648 98.7867 257.662 97.9333 253.075 96.92C248.542 95.8533 245.182 95.0533 242.995 94.52C240.862 93.9333 239.155 93.4267 237.875 93C237.288 92.84 236.862 92.52 236.595 92.04C236.328 91.5067 236.275 90.9733 236.435 90.44C236.595 89.8533 236.915 89.4267 237.395 89.16C237.928 88.8933 238.488 88.84 239.075 89C241.848 89.8533 244.888 90.68 248.195 91.48C251.555 92.28 255.395 93.08 259.715 93.88C264.035 94.6267 268.248 95.24 272.355 95.72C276.515 96.1467 280.702 96.3067 284.915 96.2C289.128 96.0933 292.888 95.6933 296.195 95C299.555 94.3067 302.462 93.1067 304.915 91.4C307.368 89.64 308.995 87.4267 309.795 84.76C310.755 81.9333 310.408 79.32 308.755 76.92C304.328 69.88 291.875 63.9067 271.395 59C270.702 58.84 270.062 58.9467 269.475 59.32C268.888 59.64 268.488 60.1467 268.275 60.84C265.555 70.3333 262.302 79.64 258.515 88.76C258.248 89.2933 257.848 89.6667 257.315 89.88C256.782 90.04 256.248 90.0133 255.715 89.8C255.182 89.5333 254.808 89.1333 254.595 88.6C254.435 88.0133 254.488 87.4533 254.755 86.92C258.382 78.2267 261.475 69.3733 264.035 60.36C264.248 59.6133 264.142 58.92 263.715 58.28C263.342 57.5867 262.782 57.16 262.035 57C259.102 56.4133 256.542 55.96 254.355 55.64C253.768 55.5867 253.288 55.32 252.915 54.84C252.595 54.36 252.462 53.8533 252.515 53.32C252.622 52.7333 252.888 52.28 253.315 51.96C253.795 51.5867 254.328 51.4267 254.915 51.48C257.422 51.8 260.568 52.0933 264.355 52.36C264.942 52.36 265.475 52.2 265.955 51.88C266.488 51.5067 266.862 51.0267 267.075 50.44C268.942 44.1467 271.528 35.1067 274.835 23.32C275.048 22.52 275.555 22.0133 276.355 21.8C277.155 21.5867 277.822 21.8 278.355 22.44C278.942 23.0267 279.128 23.6933 278.915 24.44C276.782 32.12 274.408 40.3867 271.795 49.24C271.528 50.0933 271.662 50.8667 272.195 51.56C272.728 52.2533 273.422 52.6 274.275 52.6C295.288 52.6533 310.008 49 318.435 41.64C320.888 39.6133 322.755 37.16 324.035 34.28C325.368 31.4 325.982 28.36 325.875 25.16C325.982 22.44 325.395 19.88 324.115 17.48C322.888 15.0267 321.155 13.0267 318.915 11.48C315.982 9.34666 312.195 7.72 307.555 6.59999C302.915 5.42666 298.168 4.81333 293.315 4.75999C288.515 4.70666 283.848 4.99999 279.315 5.64C274.782 6.22666 270.808 7.07999 267.395 8.19999C262.222 9.90666 257.555 11.9333 253.395 14.28C249.288 16.5733 246.008 18.8933 243.555 21.24C241.155 23.5333 239.288 25.6933 237.955 27.72C236.675 29.6933 235.955 31.4533 235.795 33C235.422 34.44 235.848 35.5867 237.075 36.44C237.768 36.92 238.755 37.16 240.035 37.16C241.315 37.16 242.862 36.9467 244.675 36.52C246.488 36.04 248.675 35.1867 251.235 33.96C253.795 32.68 256.515 31.08 259.395 29.16C259.875 28.84 260.408 28.76 260.995 28.92C261.582 29.0267 262.035 29.32 262.355 29.8C262.675 30.28 262.755 30.8133 262.595 31.4C262.488 31.9333 262.195 32.36 261.715 32.68C255.795 36.6267 250.488 39.24 245.795 40.52C241.102 41.8 237.448 41.64 234.835 40.04C233.608 39.24 232.702 38.1733 232.115 36.84C231.528 35.4533 231.342 34.0133 231.555 32.52C231.822 30.3333 232.728 28.0133 234.275 25.56C235.875 23.0533 238.035 20.5467 240.755 18.04C243.528 15.48 247.102 12.9733 251.475 10.52C255.848 8.06666 260.728 5.96 266.115 4.2C269.795 2.97333 274.062 2.04 278.915 1.4C283.768 0.759995 288.755 0.493326 293.875 0.599991C299.048 0.653327 304.115 1.32 309.075 2.6C314.035 3.87999 318.142 5.69333 321.395 8.04ZM386.073 79.64C386.659 79.6933 387.139 79.96 387.513 80.44C387.886 80.8667 388.046 81.3733 387.993 81.96C387.939 82.5467 387.673 83.0267 387.193 83.4C386.393 84.04 385.406 84.7867 384.233 85.64C383.059 86.4933 380.793 87.9333 377.433 89.96C374.073 91.9333 370.713 93.6667 367.352 95.16C364.046 96.6533 360.046 98.0133 355.353 99.24C350.659 100.467 346.179 101.08 341.913 101.08C336.473 101.133 331.246 100.147 326.233 98.12C324.633 97.48 323.273 96.7333 322.153 95.88C321.086 94.9733 320.286 94.12 319.752 93.32C319.219 92.4667 318.846 91.5867 318.632 90.68C318.366 89.72 318.259 88.8933 318.312 88.2C318.312 87.5067 318.392 86.8133 318.552 86.12C319.139 83.6133 320.526 81.1333 322.713 78.68C324.899 76.2267 327.326 74.3067 329.993 72.92C332.713 71.5333 335.139 70.8933 337.273 71C338.713 71 339.939 71.5067 340.953 72.52C342.019 73.5333 342.606 74.7867 342.713 76.28C342.979 78.84 341.539 81.16 338.393 83.24C333.859 86.0667 328.899 87.32 323.513 87C323.246 86.9467 323.006 87 322.793 87.16C322.579 87.32 322.499 87.5333 322.553 87.8C322.179 90.52 323.939 92.6533 327.833 94.2C331.299 95.64 335.033 96.4933 339.033 96.76C343.033 96.9733 346.766 96.76 350.233 96.12C353.699 95.48 357.246 94.4933 360.873 93.16C364.499 91.8267 367.593 90.4933 370.153 89.16C372.766 87.7733 375.273 86.3333 377.673 84.84C380.126 83.2933 381.779 82.2 382.633 81.56C383.539 80.92 384.179 80.44 384.553 80.12C385.033 79.7467 385.539 79.5867 386.073 79.64ZM325.353 82.12C324.659 83.08 324.953 83.5067 326.233 83.4C328.473 83.24 331.326 82.28 334.793 80.52C335.326 80.2 335.779 79.9333 336.153 79.72C337.806 78.6 338.579 77.5867 338.473 76.68C338.419 76.0933 338.286 75.72 338.073 75.56C337.859 75.3467 337.513 75.2133 337.033 75.16C335.326 75.0533 333.326 75.6667 331.033 77C328.793 78.3333 326.899 80.04 325.353 82.12ZM437.975 79.88C438.562 79.88 439.068 80.0933 439.495 80.52C439.922 80.8933 440.135 81.3733 440.135 81.96C440.135 82.5467 439.922 83.0533 439.495 83.48C438.802 84.12 437.975 84.8667 437.015 85.72C436.108 86.5733 434.295 88.04 431.575 90.12C428.908 92.2 426.268 94.0133 423.655 95.56C421.095 97.1067 418.055 98.52 414.535 99.8C411.068 101.027 407.815 101.64 404.775 101.64C402.802 101.64 400.882 101.373 399.015 100.84C395.548 99.8267 392.642 97.7467 390.295 94.6C388.002 91.4 386.322 87.2933 385.255 82.28C385.148 82.0133 385.095 81.7467 385.095 81.48C384.615 78.8667 384.295 76.2267 384.135 73.56C383.815 67.8 384.135 61.72 385.095 55.32C386.055 48.92 387.575 43.24 389.655 38.28C391.735 33.32 394.082 30.28 396.695 29.16C397.815 28.68 398.988 28.6 400.215 28.92C401.442 29.24 402.428 29.88 403.175 30.84C404.295 32.0133 404.908 33.7733 405.015 36.12C405.175 38.4667 404.882 41.16 404.135 44.2C403.442 47.24 402.588 50.3333 401.575 53.48C400.615 56.6267 399.388 59.9333 397.895 63.4C396.402 66.8667 395.095 69.8 393.975 72.2C392.908 74.6 391.815 76.9467 390.695 79.24C389.842 81 389.682 82.7867 390.215 84.6C392.188 91.32 395.522 95.4 400.215 96.84C401.708 97.48 403.415 97.6933 405.335 97.48C407.308 97.2133 409.122 96.92 410.775 96.6C412.482 96.2267 414.295 95.56 416.215 94.6C418.188 93.64 419.922 92.76 421.415 91.96C422.962 91.1067 424.562 90.0933 426.215 88.92C427.922 87.6933 429.308 86.6533 430.375 85.8C431.442 84.9467 432.508 84.0667 433.575 83.16C434.642 82.2 435.335 81.56 435.655 81.24C436.028 80.92 436.322 80.6533 436.535 80.44C436.962 80.0667 437.442 79.88 437.975 79.88ZM388.615 72.36C388.668 72.7333 388.855 73 389.175 73.16C389.495 73.2667 389.762 73.16 389.975 72.84C391.415 70.5467 393.122 66.4933 395.095 60.68C397.122 54.8133 398.695 49.1067 399.815 43.56C400.988 38.0133 401.095 34.7333 400.135 33.72C399.655 33.1867 399.202 32.92 398.775 32.92C398.615 32.92 398.455 32.9467 398.295 33C396.962 33.5867 395.362 36.1733 393.495 40.76C391.628 45.2933 390.135 50.6533 389.015 56.84C387.948 63.0267 387.815 68.2 388.615 72.36ZM490.709 79.88C491.296 79.88 491.803 80.0933 492.229 80.52C492.656 80.8933 492.869 81.3733 492.869 81.96C492.869 82.5467 492.656 83.0533 492.229 83.48C491.536 84.12 490.709 84.8667 489.749 85.72C488.843 86.5733 487.029 88.04 484.309 90.12C481.643 92.2 479.003 94.0133 476.389 95.56C473.829 97.1067 470.789 98.52 467.269 99.8C463.803 101.027 460.549 101.64 457.509 101.64C455.536 101.64 453.616 101.373 451.749 100.84C448.283 99.8267 445.376 97.7467 443.029 94.6C440.736 91.4 439.056 87.2933 437.989 82.28C437.883 82.0133 437.829 81.7467 437.829 81.48C437.349 78.8667 437.029 76.2267 436.869 73.56C436.549 67.8 436.869 61.72 437.829 55.32C438.789 48.92 440.309 43.24 442.389 38.28C444.469 33.32 446.816 30.28 449.429 29.16C450.549 28.68 451.723 28.6 452.949 28.92C454.176 29.24 455.163 29.88 455.909 30.84C457.029 32.0133 457.643 33.7733 457.749 36.12C457.909 38.4667 457.616 41.16 456.869 44.2C456.176 47.24 455.323 50.3333 454.309 53.48C453.349 56.6267 452.123 59.9333 450.629 63.4C449.136 66.8667 447.829 69.8 446.709 72.2C445.643 74.6 444.549 76.9467 443.429 79.24C442.576 81 442.416 82.7867 442.949 84.6C444.923 91.32 448.256 95.4 452.949 96.84C454.443 97.48 456.149 97.6933 458.069 97.48C460.043 97.2133 461.856 96.92 463.509 96.6C465.216 96.2267 467.029 95.56 468.949 94.6C470.923 93.64 472.656 92.76 474.149 91.96C475.696 91.1067 477.296 90.0933 478.949 88.92C480.656 87.6933 482.043 86.6533 483.109 85.8C484.176 84.9467 485.243 84.0667 486.309 83.16C487.376 82.2 488.069 81.56 488.389 81.24C488.763 80.92 489.056 80.6533 489.269 80.44C489.696 80.0667 490.176 79.88 490.709 79.88ZM441.349 72.36C441.403 72.7333 441.589 73 441.909 73.16C442.229 73.2667 442.496 73.16 442.709 72.84C444.149 70.5467 445.856 66.4933 447.829 60.68C449.856 54.8133 451.429 49.1067 452.549 43.56C453.723 38.0133 453.829 34.7333 452.869 33.72C452.389 33.1867 451.936 32.92 451.509 32.92C451.349 32.92 451.189 32.9467 451.029 33C449.696 33.5867 448.096 36.1733 446.229 40.76C444.363 45.2933 442.869 50.6533 441.749 56.84C440.683 63.0267 440.549 68.2 441.349 72.36ZM554.354 79.64C554.94 79.6933 555.42 79.96 555.794 80.44C556.167 80.8667 556.327 81.3733 556.274 81.96C556.22 82.5467 555.954 83.0267 555.474 83.4C554.674 84.04 553.687 84.7867 552.514 85.64C551.34 86.4933 549.074 87.9333 545.714 89.96C542.354 91.9333 538.994 93.6667 535.634 95.16C532.327 96.6533 528.327 98.0133 523.634 99.24C518.94 100.467 514.46 101.08 510.194 101.08C504.754 101.133 499.527 100.147 494.514 98.12C492.914 97.48 491.554 96.7333 490.434 95.88C489.367 94.9733 488.567 94.12 488.034 93.32C487.5 92.4667 487.127 91.5867 486.914 90.68C486.647 89.72 486.54 88.8933 486.594 88.2C486.594 87.5067 486.674 86.8133 486.834 86.12C487.42 83.6133 488.807 81.1333 490.994 78.68C493.18 76.2267 495.607 74.3067 498.274 72.92C500.994 71.5333 503.42 70.8933 505.554 71C506.994 71 508.22 71.5067 509.234 72.52C510.3 73.5333 510.887 74.7867 510.994 76.28C511.26 78.84 509.82 81.16 506.674 83.24C502.14 86.0667 497.18 87.32 491.794 87C491.527 86.9467 491.287 87 491.074 87.16C490.86 87.32 490.78 87.5333 490.834 87.8C490.46 90.52 492.22 92.6533 496.114 94.2C499.58 95.64 503.314 96.4933 507.314 96.76C511.314 96.9733 515.047 96.76 518.514 96.12C521.98 95.48 525.527 94.4933 529.154 93.16C532.78 91.8267 535.874 90.4933 538.434 89.16C541.047 87.7733 543.554 86.3333 545.954 84.84C548.407 83.2933 550.06 82.2 550.914 81.56C551.82 80.92 552.46 80.44 552.834 80.12C553.314 79.7467 553.82 79.5867 554.354 79.64ZM493.634 82.12C492.94 83.08 493.234 83.5067 494.514 83.4C496.754 83.24 499.607 82.28 503.074 80.52C503.607 80.2 504.06 79.9333 504.434 79.72C506.087 78.6 506.86 77.5867 506.754 76.68C506.7 76.0933 506.567 75.72 506.354 75.56C506.14 75.3467 505.794 75.2133 505.314 75.16C503.607 75.0533 501.607 75.6667 499.314 77C497.074 78.3333 495.18 80.04 493.634 82.12Z" fill="#FFB800"/>
<path id="block-logo" d="M124.142 111.903V111.03H90.871V34.4H86.215V112L124.142 111.903ZM163.657 112H168.41L149.689 34.4L131.647 112H132.52L141.056 75.431H154.733L163.657 112ZM141.25 74.558L147.749 46.428L154.539 74.558H141.25ZM297.668 69.805C294.273 65.634 289.714 62.53 284.573 61.463C286.804 60.784 288.55 59.814 290.199 58.262C293.012 55.643 294.661 52.054 294.661 48.174C294.661 44.294 293.012 40.802 290.199 38.183C287.58 35.758 284.088 34.4 280.402 34.4H268.374V112H280.887C287.483 112 293.497 109.187 297.668 103.949C301.257 99.39 303.294 93.376 303.294 86.974C303.294 80.572 301.257 74.461 297.668 69.805ZM273.321 35.273H280.402C285.252 35.273 289.229 40.317 289.229 48.174C289.229 55.449 286.222 60.784 280.402 60.784H273.321V35.273ZM273.321 111.127V61.657H282.051C286.513 62.433 298.444 67.477 298.444 86.974C298.444 109.769 283.894 111.127 280.984 111.127H273.321ZM322.477 111.127V60.978H350.607V60.105H322.477V35.273H350.607V34.4H317.821V112H350.607V111.127H322.477ZM404.533 111.903V111.03H371.262V34.4H366.606V112L404.533 111.903ZM455.59 111.903V111.03H422.319V34.4H417.663V112L455.59 111.903ZM473.377 111.127V60.978H501.507V60.105H473.377V35.273H501.507V34.4H468.721V112H501.507V111.127H473.377Z" fill="white"/>
</g>
</svg>
